<svg xmlns="http://www.w3.org/2000/svg" viewBox="0 0 500 577" width="500" height="577"><metadata><rdf:RDF xmlns:rdf="http://www.w3.org/1999/02/22-rdf-syntax-ns#" xmlns:dc="http://purl.org/dc/elements/1.1/"><rdf:Description><dc:creator>RealFaviconGenerator</dc:creator><dc:source>https://realfavicongenerator.net</dc:source></rdf:Description></rdf:RDF></metadata><defs>
    <linearGradient id="bg1" x1="0" y1="0" x2="0" y2="1">
      <stop offset="0%" stop-color="#347a66"></stop>
      <stop offset="100%" stop-color="#1e4a3c"></stop>
    </linearGradient>
  </defs><polygon points="250,14 488,150 488,428 250,564 12,428 12,150" fill="url(#bg1)" stroke="#f0c75e" stroke-width="8" stroke-linejoin="round"></polygon><polygon points="250,30 474,158 474,420 250,548 26,420 26,158" fill="none" stroke="#f0c75e" stroke-width="2" opacity="0.3" stroke-linejoin="round"></polygon><g stroke="#ffffff" stroke-width="3.5" fill="none" stroke-linecap="round" stroke-linejoin="round">
    <!-- Root -->
    <path d="M 80,250 H 130"></path>
    <!-- First split -->
    <path d="M 130,180 V 320"></path>
    <!-- Upper clade -->
    <path d="M 130,180 H 175"></path>
    <path d="M 175,155 V 210"></path>
    <path d="M 175,155 H 215"></path>
    <path d="M 175,210 H 215"></path>
    <!-- Lower clade -->
    <path d="M 130,320 H 175"></path>
    <path d="M 175,290 V 350"></path>
    <path d="M 175,290 H 215"></path>
    <path d="M 175,350 H 215"></path>
  </g><g fill="#f0c75e">
    <circle cx="222" cy="155" r="7"></circle>
    <circle cx="222" cy="210" r="7"></circle>
    <circle cx="222" cy="290" r="7"></circle>
    <circle cx="222" cy="350" r="7"></circle>
  </g><g stroke="#f0c75e" stroke-width="2" stroke-dasharray="5,4" fill="none" opacity="0.7">
    <path d="M 235,155 H 300"></path>
    <path d="M 235,210 H 300"></path>
    <path d="M 235,290 H 300"></path>
    <path d="M 235,350 H 300"></path>
  </g><g stroke="#ffffff" stroke-width="2.5" fill="none" stroke-linecap="round">
    <!-- Table frame -->
    <rect x="300" y="135" width="140" height="235" rx="8" ry="8"></rect>
    <!-- Header line -->
    <line x1="300" y1="175" x2="440" y2="175"></line>
    <!-- Row separators -->
    <line x1="300" y1="230" x2="440" y2="230"></line>
    <line x1="300" y1="290" x2="440" y2="290"></line>
    <!-- Column separator -->
    <line x1="370" y1="135" x2="370" y2="370"></line>
  </g><g fill="#ffffff" opacity="0.25">
    <rect x="310" y="143" width="52" height="24" rx="3"></rect>
    <rect x="378" y="143" width="52" height="24" rx="3"></rect>
  </g><g fill="#f0c75e" opacity="0.6">
    <circle cx="335" cy="203" r="5"></circle>
    <circle cx="335" cy="260" r="5"></circle>
    <circle cx="335" cy="320" r="5"></circle>
    <circle cx="335" cy="350" r="5"></circle>
  </g><text x="250" y="455" text-anchor="middle" fill="#ffffff" font-family="'Fira Sans','Helvetica Neue',Arial,sans-serif" font-size="46" font-weight="700" letter-spacing="1">
    prepR4pcm
  </text></svg>